<svg width="699" height="483" viewBox="0 0 699 483" fill="none" xmlns="http://www.w3.org/2000/svg">
<g filter="url(#filter0_dd_1_120)">
<path d="M557.333 11C557.333 16.891 562.109 21.6667 568 21.6667C573.891 21.6667 578.667 16.891 578.667 11C578.667 5.10896 573.891 0.333333 568 0.333333C562.109 0.333333 557.333 5.10896 557.333 11ZM693 143H695V142.203L694.452 141.625L693 143ZM693 296.5V298.5H695V296.5H693ZM6 296.5V294.5H4V296.5H6ZM566.548 12.3752L691.548 144.375L694.452 141.625L569.452 9.62482L566.548 12.3752ZM691 143V296.5H695V143H691ZM693 294.5H6V298.5H693V294.5ZM4 296.5V474.5H8V296.5H4Z" fill="#42FF00"/>
</g>
</svg>
