<svg width="691" height="470" viewBox="0 0 691 470" fill="none" xmlns="http://www.w3.org/2000/svg">
<path d="M562.833 3.5C562.833 4.97276 564.027 6.16667 565.5 6.16667C566.973 6.16667 568.167 4.97276 568.167 3.5C568.167 2.02724 566.973 0.833333 565.5 0.833333C564.027 0.833333 562.833 2.02724 562.833 3.5ZM690.5 135.5H691V135.301L690.863 135.156L690.5 135.5ZM690.5 289V289.5H691V289H690.5ZM3.5 289V288.5H3V289H3.5ZM0.833333 467C0.833333 468.473 2.02724 469.667 3.5 469.667C4.97276 469.667 6.16667 468.473 6.16667 467C6.16667 465.527 4.97276 464.333 3.5 464.333C2.02724 464.333 0.833333 465.527 0.833333 467ZM565.137 3.8438L690.137 135.844L690.863 135.156L565.863 3.1562L565.137 3.8438ZM690 135.5V289H691V135.5H690ZM690.5 288.5H3.5V289.5H690.5V288.5ZM3 289V467H4V289H3Z" fill="#42FF00"/>
</svg>
