<svg width="858" height="1347" viewBox="0 0 858 1347" fill="none" xmlns="http://www.w3.org/2000/svg">
<path d="M489.333 11C489.333 16.891 494.109 21.6667 500 21.6667C505.891 21.6667 510.667 16.891 510.667 11C510.667 5.10896 505.891 0.333333 500 0.333333C494.109 0.333333 489.333 5.10896 489.333 11ZM563.5 71H565.5V70.1382L564.874 69.5463L563.5 71ZM563.5 307.5H561.5V309.5H563.5V307.5ZM855.5 307.5H857.5V305.5H855.5V307.5ZM855.5 1281.5V1283.5H857.5V1281.5H855.5ZM2 1281.5V1279.5H0V1281.5H2ZM498.626 12.4537L562.126 72.4537L564.874 69.5463L501.374 9.54629L498.626 12.4537ZM561.5 71V307.5H565.5V71H561.5ZM563.5 309.5H855.5V305.5H563.5V309.5ZM853.5 307.5V1281.5H857.5V307.5H853.5ZM855.5 1279.5H2V1283.5H855.5V1279.5ZM0 1281.5V1346.5H4V1281.5H0Z" fill="#42FF00"/>
</svg>
